<?xml version="1.0" encoding="UTF-8"?>
<svg version="1.1" xmlns="http://www.w3.org/2000/svg" width="1920" height="1079">
<path d="M0 0 C633.6 0 1267.2 0 1920 0 C1920 356.07 1920 712.14 1920 1079 C1286.4 1079 652.8 1079 0 1079 C0 722.93 0 366.86 0 0 Z " fill="#FEFEFE" transform="translate(0,0)"/>
<path d="M0 0 C0.84949219 0.58910156 1.69898438 1.17820312 2.57421875 1.78515625 C6.01206138 4.32710896 8.61488862 6.42233293 11 10 C11.66 7.69 12.32 5.38 13 3 C16.84857034 2.92145775 18.96246939 3.01613476 21.8125 5.71875 C23.67189183 8.07619321 25.35398199 10.48906049 27 13 C27.515625 13.75667969 28.03125 14.51335937 28.5625 15.29296875 C42.38644064 36.78487646 45.11111272 61.50061925 45.25 86.4375 C45.2593457 87.58557129 45.26869141 88.73364258 45.27832031 89.91650391 C45.24888066 97.78255156 44.35858656 105.26047803 43 113 C42.835 114.17691406 42.67 115.35382813 42.5 116.56640625 C37.59915547 145.93318557 22.5453402 182.65669437 -2 201 C-6.3449454 203.73920471 -10.53567865 204.64335902 -15.53515625 205.47265625 C-18.1891122 206.04045982 -20.48463326 206.98702426 -23 208 C-33.85460734 211.05724083 -47.28603109 213.76707843 -58 209 C-58.33 208.01 -58.66 207.02 -59 206 C-60.89630209 205.52592448 -62.79570711 205.06167157 -64.70703125 204.65234375 C-67.96073413 203.7266736 -70.58218716 202.04696906 -73.4765625 200.328125 C-76.27436503 198.85559735 -79.06212962 197.93021514 -82.0625 196.9375 C-90.87956833 193.6776684 -97.78337613 187.86954817 -105 182 C-106.27810547 180.98292969 -106.27810547 180.98292969 -107.58203125 179.9453125 C-118.21470005 171.12202711 -123.43142434 159.49691549 -126 146 C-126.26457573 142.92195939 -126.2810886 139.86542837 -126.265625 136.77734375 C-126.26753845 135.91420059 -126.2694519 135.05105743 -126.27142334 134.16175842 C-126.27277728 132.34229235 -126.26913641 130.52281635 -126.26074219 128.70336914 C-126.25012363 125.96933302 -126.2606168 123.23596785 -126.2734375 120.50195312 C-126.28624702 106.57768734 -125.37323922 93.18046742 -121.375 79.75 C-120.9869519 78.43020142 -120.9869519 78.43020142 -120.59106445 77.08374023 C-115.05124848 58.8595885 -106.5858024 36.0572016 -90 25 C-87.5 25.375 -87.5 25.375 -85 26 C-81.93854941 26.32557805 -81.93854941 26.32557805 -79.9921875 24.27734375 C-75.63785297 19.46508105 -73.51025026 16.63325341 -73 10 C-69.31189822 3.26520544 -61.27100773 0.62425799 -54.3125 -1.6875 C-38.60145535 -5.95469731 -14.08820708 -9.89381968 0 0 Z " fill="#010101" transform="translate(1460,428)"/>
<path d="M0 0 C1.0173873 0.98230498 2.02596117 1.97469597 3 3 C3.144375 2.195625 3.28875 1.39125 3.4375 0.5625 C4 -2 4 -2 5 -3 C7.25 -3.375 7.25 -3.375 10 -3 C22.01119652 6.48252357 27.97081156 22.97414523 32.375 37.125 C32.62580322 37.91116699 32.87660645 38.69733398 33.13500977 39.50732422 C36.74006512 51.72508409 36.23832409 64.76518297 36.29516602 77.39916992 C36.30664097 79.16227269 36.3270211 80.92534195 36.35668945 82.68823242 C36.65627746 100.61162871 33.92325053 117.16654758 27.8125 134.0625 C27.23048828 135.69964966 27.23048828 135.69964966 26.63671875 137.36987305 C21.16774536 152.42388386 14.73214327 166.23853127 5 179 C4.33097656 179.91394531 3.66195312 180.82789063 2.97265625 181.76953125 C-2.9475143 189.58884563 -10.28184077 197.1772373 -20.3125 198.875 C-24.93646834 199.73897017 -29.45811256 200.8493716 -34 202.0625 C-34.65911377 202.23700684 -35.31822754 202.41151367 -35.99731445 202.59130859 C-39.58528027 203.55803905 -39.58528027 203.55803905 -43 205 C-45.57533857 205.12541286 -48.11191813 205.18517756 -50.6875 205.1875 C-51.38294922 205.19974609 -52.07839844 205.21199219 -52.79492188 205.22460938 C-57.49859252 205.23778492 -61.54623008 204.68627012 -66 203 C-66.66 202.01 -67.32 201.02 -68 200 C-69.94534028 199.13156559 -69.94534028 199.13156559 -72.1875 198.5625 C-75.78500088 197.46215504 -78.72002365 196.06706877 -81.9375 194.0859375 C-84.61804078 192.67459217 -87.39267087 191.75410859 -90.25 190.75 C-97.11569784 188.17144453 -102.28283793 184.51852947 -108 180 C-109.11812459 179.17694068 -110.23935058 178.35808169 -111.36328125 177.54296875 C-122.48030699 169.41246602 -127.54074544 162.12439693 -132 149 C-132.4125 147.80375 -132.825 146.6075 -133.25 145.375 C-140.69898807 111.85455369 -133.11874744 74.24509224 -118 44 C-117.44570313 42.89011719 -116.89140625 41.78023438 -116.3203125 40.63671875 C-113.26691519 35.00473472 -109.66115538 30.10144799 -105.4375 25.3125 C-104.76690552 24.53543701 -104.76690552 24.53543701 -104.08276367 23.74267578 C-100.93870203 20.35110901 -98.59512984 19.2901477 -94 19 C-93.505 20.485 -93.505 20.485 -93 22 C-88.52264457 18.56389002 -84.62205806 15.08091748 -82 10 C-81.814375 8.2365625 -81.814375 8.2365625 -81.625 6.4375 C-80.85191104 2.18551074 -79.61443269 0.94734421 -76.23828125 -1.58984375 C-54.51495512 -15.27591833 -19.94191048 -16.67616208 0 0 Z " fill="#010101" transform="translate(716,434)"/>
<path d="M0 0 C5.24279959 0.52427996 8.02971977 2.30006484 11.3984375 6.36328125 C12.57251043 7.90126366 13.73623364 9.44719038 14.890625 11 C18.5893029 15.72436169 23.03881723 19.74530213 27.375 23.875 C36.49551325 33.47554026 42.40058631 45.55923445 43.25 58.9375 C43.06614672 64.29827468 40.70237777 68.97554129 37.75 73.375 C34.29337669 75.67941554 32.80142119 75.63360135 28.75 75.375 C28.09 75.045 27.43 74.715 26.75 74.375 C26.62625 75.179375 26.5025 75.98375 26.375 76.8125 C26.16875 77.658125 25.9625 78.50375 25.75 79.375 C22.63450128 80.93274936 19.1455612 80.93980622 15.75 80.375 C12.84144275 78.24478906 12.16810636 76.04742544 11.3125 72.625 C9.98705246 67.95177258 8.62511176 64.31801041 5.75 60.375 C4.33654297 59.94574219 4.33654297 59.94574219 2.89453125 59.5078125 C-1.83948761 57.80238956 -3.8780047 54.36526935 -6.90625 50.4921875 C-9.10775255 48.05930103 -9.10775255 48.05930103 -12.34375 48.1953125 C-13.3028125 48.25460937 -14.261875 48.31390625 -15.25 48.375 C-16.735 47.385 -16.735 47.385 -18.25 46.375 C-24.30148119 46.49365649 -28.79788504 48.38433265 -33.25 52.375 C-36.24858459 56.18022137 -38.7331345 60.24085179 -41.25 64.375 C-41.91 65.36628906 -42.57 66.35757813 -43.25 67.37890625 C-54.46990129 84.53746622 -61.87791512 104.75578018 -63.890625 125.14453125 C-64.25 128.375 -64.25 128.375 -65.25 131.375 C-67.11351307 151.59832012 -67.11351307 151.59832012 -60.25 170.015625 C-59.59 170.79421875 -58.93 171.5728125 -58.25 172.375 C-57.651875 173.09171875 -57.05375 173.8084375 -56.4375 174.546875 C-52.60430743 178.68809197 -48.17510193 183.04597619 -42.40234375 183.6953125 C-31.68272496 182.60608234 -20.59932397 168.30020624 -13.08740234 161.12402344 C-10.56252254 158.72059015 -8.01078217 156.3516418 -5.4375 154 C-4.68855469 153.31164062 -3.93960937 152.62328125 -3.16796875 151.9140625 C-1.25 150.375 -1.25 150.375 1.75 149.375 C1.75 148.715 1.75 148.055 1.75 147.375 C-4.19609989 148.53397544 -4.19609989 148.53397544 -9.875 150.5625 C-13.20437576 151.70149697 -15.85045993 151.04157648 -19.25 150.375 C-19.25 149.715 -19.25 149.055 -19.25 148.375 C-20.7040625 148.4059375 -20.7040625 148.4059375 -22.1875 148.4375 C-25.25 148.375 -25.25 148.375 -26.25 147.375 C-26.32179964 145.85571962 -26.33392007 144.33332518 -26.3125 142.8125 C-26.30347656 141.98621094 -26.29445313 141.15992188 -26.28515625 140.30859375 C-26.27355469 139.67050781 -26.26195312 139.03242187 -26.25 138.375 C-26.86875 138.25125 -27.4875 138.1275 -28.125 138 C-30.25 137.375 -30.25 137.375 -32.25 135.375 C-32.99829541 130.04241059 -33.32017532 125.05160801 -30.375 120.4375 C-29.34375 119.756875 -28.3125 119.07625 -27.25 118.375 C-26.61449219 117.94832031 -25.97898437 117.52164063 -25.32421875 117.08203125 C-17.33736519 112.37820212 -8.27974261 111.56055788 0.75 110.375 C2.04808594 110.19066406 3.34617187 110.00632812 4.68359375 109.81640625 C21.89327923 107.72459783 41.88452038 108.41359613 56.75 118.375 C59.375 120.625 59.375 120.625 60.75 123.375 C60.84362338 125.66877279 60.74484869 127.91101876 60.625 130.203125 C60.56561834 132.64154251 60.56561834 132.64154251 62.75 135.0625 C65.93071589 140.3305607 65.60575726 146.36157061 64.75 152.375 C61.41973646 154.5951757 60.61321287 154.98960205 56.75 154.375 C54.26441188 152.8919152 52.0007625 151.19117723 49.75 149.375 C49.8325 150.48875 49.915 151.6025 50 152.75 C50.02535297 156.36913717 49.26952324 158.79338487 47.75 162.0625 C45.13408017 168.26250928 45.22361361 173.76164681 45.75 180.375 C45.82105957 181.33083984 45.89211914 182.28667969 45.96533203 183.27148438 C46.2304311 186.58144993 46.54532925 189.88337069 46.875 193.1875 C47.0133728 194.79830444 47.0133728 194.79830444 47.15454102 196.44165039 C47.87667265 202.86098642 49.13077782 206.92254417 53.46679688 211.78491211 C54.75 213.375 54.75 213.375 55.125 216.125 C53.22420914 219.23538504 50.84643082 220.14726943 47.5625 221.578125 C45.76756903 222.23652579 45.76756903 222.23652579 44.75 223.375 C35.61167533 224.31784302 28.31283009 222.50963922 20.9375 217.0625 C15.56803317 212.60977141 12.67082872 208.09790051 10.75 201.375 C9.450625 202.5815625 9.450625 202.5815625 8.125 203.8125 C-5.08201717 215.06787293 -17.66805507 221.32485149 -35.25 220.375 C-36.34699219 220.34277344 -37.44398437 220.31054688 -38.57421875 220.27734375 C-56.24058737 219.44623594 -70.29686306 212.289281 -82.25 199.375 C-97.52761852 180.27797685 -102.4600353 155.27258724 -103.25 131.375 C-103.28399902 130.34681152 -103.31799805 129.31862305 -103.35302734 128.25927734 C-104.32196434 93.65789784 -104.32196434 93.65789784 -97.73828125 82.90625 C-97.24714844 82.4009375 -96.75601562 81.895625 -96.25 81.375 C-95.59 81.375 -94.93 81.375 -94.25 81.375 C-94.353125 80.488125 -94.45625 79.60125 -94.5625 78.6875 C-94.47165621 63.60743053 -82.71996798 47.95297471 -72.5625 37.5546875 C-68.53182034 33.59004446 -64.21845052 29.93717018 -59.79443359 26.41943359 C-57.20681483 24.31694713 -55.43078658 22.83671145 -54.19921875 19.69140625 C-53.25 17.375 -53.25 17.375 -50.74609375 15.93359375 C-49.73675781 15.56363281 -48.72742187 15.19367188 -47.6875 14.8125 C-46.61242188 14.40386719 -45.53734375 13.99523437 -44.4296875 13.57421875 C-43.38039063 13.17847656 -42.33109375 12.78273438 -41.25 12.375 C-38.91521923 11.33306052 -36.59882808 10.25961282 -34.28515625 9.171875 C-24.94972839 5.51654432 -13.68972982 6.7709366 -4.25 9.375 C-4.559375 7.704375 -4.559375 7.704375 -4.875 6 C-4.99875 4.80375 -5.1225 3.6075 -5.25 2.375 C-3.25 0.375 -3.25 0.375 0 0 Z " fill="#010101" transform="translate(1232.25,417.625)"/>
<path d="M0 0 C2.375 1.8125 2.375 1.8125 4 4 C4 4.99 4 5.98 4 7 C4.7425 7.0825 5.485 7.165 6.25 7.25 C9.51221354 8.1396946 10.80954878 9.48503749 13 12 C13.845625 11.05125 14.69125 10.1025 15.5625 9.125 C18.73966435 5.91019152 21.60523017 5.07796241 26 4 C26.46535156 3.50242187 26.93070313 3.00484375 27.41015625 2.4921875 C29.5253494 0.50692022 30.87865472 0.44179971 33.75 0.3125 C38.04097374 0.45091851 40.12403737 1.36304441 43.125 4.4375 C45.9077201 8.17842089 46.81987751 10.95367014 46.4375 15.58203125 C45.61090249 20.15045856 44.31547368 24.55305726 43 29 C41.69393341 34.0422086 40.60624649 38.74995321 41 44 C41.33 44.33 41.66 44.66 42 45 C41.53342716 71.19985925 41.53342716 71.19985925 37 78 C34.375 78.1875 34.375 78.1875 32 78 C32.48082031 78.48984375 32.96164062 78.9796875 33.45703125 79.484375 C35.58389475 82.95197018 35.56513296 86.29230026 35.6875 90.25 C35.72166016 90.99507812 35.75582031 91.74015625 35.79101562 92.5078125 C35.87314054 94.33802492 35.93825653 96.16898669 36 98 C36.93199219 98.1340625 37.86398437 98.268125 38.82421875 98.40625 C42.46141094 99.08626625 45.35067203 100.35067203 48 103 C49.17841668 109.28488898 50.21018054 115.94270179 47.8125 122 C45.6147565 124.42509628 44.21245843 124.7395304 41 125 C40.9175 125.9075 40.835 126.815 40.75 127.75 C40 131 40 131 38.00268555 132.62084961 C34.95910538 136.236562 35.31003313 139.7177994 35.20703125 144.31640625 C35.15310211 145.73314888 35.15310211 145.73314888 35.0980835 147.17851257 C34.98431525 150.30617283 34.89844398 153.43396178 34.8125 156.5625 C34.73769162 158.73995897 34.66141651 160.91736801 34.58374023 163.09472656 C34.18235408 174.86711417 33.9384813 186.64020773 33.765625 198.41796875 C33.73833565 200.1658242 33.73833565 200.1658242 33.710495 201.94898987 C33.62367293 207.60222795 33.55404203 213.25465849 33.5168457 218.90844727 C33.49210144 220.96501139 33.46697514 223.02157096 33.44140625 225.078125 C33.44138611 226.01242844 33.44136597 226.94673187 33.44134521 227.90934753 C33.36680231 232.70481972 33.24012151 236.17524891 30 240 C27.125 241.125 27.125 241.125 24 242 C20.57415368 243.7907833 19.17631603 244.73552596 17 248 C10.8481432 248.67111165 10.8481432 248.67111165 8.37768555 246.71630859 C6.91077372 244.88884268 6.17554935 243.36693406 5.39453125 241.1640625 C5.13349609 240.42929687 4.87246094 239.69453125 4.60351562 238.9375 C4.34248047 238.174375 4.08144531 237.41125 3.8125 236.625 C3.53986328 235.86960937 3.26722656 235.11421875 2.98632812 234.3359375 C1.63064787 230.44897455 0.62550658 227.17768215 1 223 C-0.0725 223.0825 -1.145 223.165 -2.25 223.25 C-6 223 -6 223 -8.375 221.375 C-11.24311298 217.18314256 -11.12686729 212.3445985 -11.1328125 207.38671875 C-11.13482666 206.31550781 -11.13684082 205.24429688 -11.13891602 204.140625 C-11.13432373 203.00109375 -11.12973145 201.8615625 -11.125 200.6875 C-11.12101196 198.91052734 -11.12101196 198.91052734 -11.11694336 197.09765625 C-11.07393494 188.89230267 -10.88549545 180.69897144 -10.5625 172.5 C-10.50376709 171.00859497 -10.50376709 171.00859497 -10.44384766 169.48706055 C-10.15679008 162.96997377 -9.64515283 156.49110823 -9 150 C-10.65 149.67 -12.3 149.34 -14 149 C-14.33 148.01 -14.66 147.02 -15 146 C-17.08633885 146.09346316 -19.16982923 146.25193411 -21.25 146.4375 C-22.41015625 146.51871094 -23.5703125 146.59992188 -24.765625 146.68359375 C-28.25920925 148.10549942 -28.5458921 148.2971605 -30.046875 151.4921875 C-30.73336869 153.31516533 -31.37802581 155.1540125 -32 157 C-32.4540667 158.29556937 -32.90887567 159.59087874 -33.36425781 160.88598633 C-34.68149305 164.67605001 -35.95220515 168.48028235 -37.20898438 172.29077148 C-37.9930579 174.66646586 -38.78501414 177.03941884 -39.578125 179.41210938 C-42.28557932 187.5558101 -44.82928606 195.67421332 -46.9453125 203.99536133 C-48.8871361 209.5273111 -52.00653296 213.8790831 -57 217 C-59.49516266 216.92661286 -60.68226009 216.18626133 -62.8125 214.9375 C-64.80630011 211.68445771 -63.66025532 208.66141589 -63 205 C-64.65 204.67 -66.3 204.34 -68 204 C-68.33 201.69 -68.66 199.38 -69 197 C-69.30744141 197.95712891 -69.30744141 197.95712891 -69.62109375 198.93359375 C-70.02521484 200.17302734 -70.02521484 200.17302734 -70.4375 201.4375 C-70.70433594 202.26121094 -70.97117187 203.08492187 -71.24609375 203.93359375 C-72 206 -72 206 -73 207 C-75.9375 207.1875 -75.9375 207.1875 -79 207 C-81 205 -81 205 -81.1953125 203.0546875 C-81.09765625 200.02734375 -81.09765625 200.02734375 -81 197 C-81.99 196.67 -82.98 196.34 -84 196 C-86.5171034 190.96579319 -84.50143653 185.41200523 -83 180.3125 C-82.78794922 179.56081543 -82.57589844 178.80913086 -82.35742188 178.03466797 C-80.91723213 172.98096593 -79.36575916 167.96723303 -77.78125 162.95703125 C-77.40484375 161.7455542 -77.0284375 160.53407715 -76.640625 159.28588867 C-75.8864796 156.86542413 -75.11588766 154.45001636 -74.328125 152.0402832 C-73.98265625 150.92613037 -73.6371875 149.81197754 -73.28125 148.6640625 C-72.80268555 147.17060303 -72.80268555 147.17060303 -72.31445312 145.64697266 C-71.70602785 142.94217986 -71.70602785 142.94217986 -73.41992188 140.82568359 C-73.94134766 140.22320801 -74.46277344 139.62073242 -75 139 C-75 133.59010771 -72.69405938 130.77996774 -69 127 C-68.32743164 126.7004541 -67.65486328 126.4009082 -66.96191406 126.09228516 C-64.41660922 124.67520031 -63.98855117 123.45589716 -62.921875 120.7734375 C-62.5700415 119.91500244 -62.21820801 119.05656738 -61.85571289 118.17211914 C-61.49082764 117.24906982 -61.12594238 116.32602051 -60.75 115.375 C-59.95567575 113.44242234 -59.15745886 111.5114403 -58.35546875 109.58203125 C-57.9589209 108.6276416 -57.56237305 107.67325195 -57.15380859 106.68994141 C-55.6005535 103.06874704 -53.86852459 99.56287896 -52.0625 96.0625 C-38.82431899 71.76673755 -38.82431899 71.76673755 -31.125 45.5625 C-29.94156966 37.69616895 -25.75124407 30.89950141 -22 24 C-21.57525391 23.20948242 -21.15050781 22.41896484 -20.71289062 21.60449219 C-19.40143178 19.16851065 -18.07897385 16.73896661 -16.75 14.3125 C-16.33814453 13.55831787 -15.92628906 12.80413574 -15.50195312 12.02709961 C-8.33935905 -0.8339359 -8.33935905 -0.8339359 0 0 Z " fill="#010101" transform="translate(1035,424)"/>
<path d="M0 0 C2.83302981 2.17732856 3.88971708 3.26444326 4.42578125 6.83984375 C4.38839844 7.86207031 4.35101562 8.88429688 4.3125 9.9375 C4.28800781 10.95714844 4.26351562 11.97679687 4.23828125 13.02734375 C4.01915669 15.7610124 3.60521781 18.32818479 3 21 C3.66 20.34 4.32 19.68 5 19 C7.75 18.4375 7.75 18.4375 11 19 C13.59371636 20.98343015 15.54441784 23.07335075 17 26 C17.66545738 31.86876779 16.1138971 35.91581517 13.75 41.125 C11.53160609 46.22151887 9.5443305 51.19170258 8.0625 56.5625 C6.42403186 62.15256777 4.05846723 67.1650837 1.40332031 72.32055664 C-10.19786949 94.87174233 -19.45568386 118.47030321 -28.78358459 142.02238464 C-30.03059021 145.16967192 -31.28083911 148.31566813 -32.53085327 151.46176147 C-33.41034483 153.68146449 -34.28322575 155.90368055 -35.15551758 158.1262207 C-43.65796541 179.65796541 -43.65796541 179.65796541 -48 184 C-50.625 184.625 -50.625 184.625 -53 185 C-58.51350848 205.21580368 -58.51350848 205.21580368 -61.515625 225.8984375 C-62.07052727 229.45160204 -63.10938162 231.94800176 -65 235 C-68.76624671 236.25541557 -70.37188934 235.37061958 -74 234 C-74.66 234.66 -75.32 235.32 -76 236 C-78.4609375 236.30078125 -78.4609375 236.30078125 -81.375 236.3125 C-82.33148438 236.32925781 -83.28796875 236.34601563 -84.2734375 236.36328125 C-87.48700842 235.93511206 -88.78192114 235.35859065 -91 233 C-91.828125 230.30078125 -91.828125 230.30078125 -92.25 227.3125 C-92.39953125 226.31863281 -92.5490625 225.32476563 -92.703125 224.30078125 C-92.80109375 223.54152344 -92.8990625 222.78226563 -93 222 C-93.99 222 -94.98 222 -96 222 C-96.66 223.32 -97.32 224.64 -98 226 C-100.31 226 -102.62 226 -105 226 C-105.67354499 224.56570999 -106.33859701 223.12742943 -107 221.6875 C-107.37125 220.88699219 -107.7425 220.08648438 -108.125 219.26171875 C-109 217 -109 217 -109 214 C-109.66 214.33 -110.32 214.66 -111 215 C-114.375 215.375 -114.375 215.375 -118 215 C-121.78931554 211.28204634 -123.15075641 207.20702973 -124.4375 202.1875 C-124.7466333 201.03072754 -124.7466333 201.03072754 -125.06201172 199.85058594 C-127.5674941 190.21936751 -129.4891893 180.45665958 -131.44335938 170.70214844 C-131.93496835 168.31568871 -132.46042475 165.94263229 -133.015625 163.5703125 C-133.29921875 162.35085938 -133.5828125 161.13140625 -133.875 159.875 C-134.11992187 158.86179687 -134.36484375 157.84859375 -134.6171875 156.8046875 C-135.04889155 153.64179458 -134.67273359 151.10563314 -134 148 C-131.1875 147.6875 -131.1875 147.6875 -128 148 C-126.30078125 150.51953125 -126.30078125 150.51953125 -125 153 C-127.81249163 136.73924876 -130.80140678 120.51382235 -133.9375 104.3125 C-134.10798859 103.43140564 -134.27847717 102.55031128 -134.45413208 101.64251709 C-136.72386135 89.96644536 -139.14412081 78.36310713 -142.18530273 66.85864258 C-146.55630961 49.90834786 -146.55630961 49.90834786 -143.75561523 44.67456055 C-141.35689919 42.38659039 -139.24504503 42.60221493 -136.03515625 42.6640625 C-133.72712122 43.04504333 -132.03231862 43.86335648 -130 45 C-130.2165625 43.948125 -130.2165625 43.948125 -130.4375 42.875 C-133.32907348 28.09584665 -133.32907348 28.09584665 -130.375 23.4375 C-128 22 -128 22 -125 21.9375 C-121.14706001 23.30208291 -120.25197958 24.58471712 -118 28 C-116.73702902 31.16631639 -115.82788821 34.39940865 -114.9375 37.6875 C-114.67928467 38.61288574 -114.42106934 39.53827148 -114.1550293 40.49169922 C-112.33400244 47.22656238 -111.01167878 53.95647172 -109.97900391 60.85180664 C-109.09906242 66.70854278 -107.75807935 72.33923387 -106 78 C-103.69 77.67 -101.38 77.34 -99 77 C-93.73230582 82.9051322 -91.77096914 88.08986611 -90.42578125 95.8125 C-90.22737137 96.85148438 -90.02896149 97.89046875 -89.82453918 98.9609375 C-89.19325231 102.30348207 -88.59458479 105.65074821 -88 109 C-87.58972042 111.24361596 -87.17875005 113.4871057 -86.76708984 115.73046875 C-85.53981119 122.48114051 -84.36080623 129.2397755 -83.1875 136 C-82.77704725 138.34771826 -82.36624141 140.69537482 -81.95507812 143.04296875 C-80.96600492 148.69461195 -79.98119943 154.34698477 -79 160 C-77.36589344 155.10452289 -75.73592535 150.20785243 -74.125 145.3046875 C-66.61566654 122.54346694 -58.93376341 99.78273736 -50.01220703 77.52978516 C-48.81079198 74.52711686 -47.62258796 71.51932678 -46.43359375 68.51171875 C-43.61585764 61.4016377 -40.7607753 54.30707232 -37.89422607 47.21655273 C-36.94977462 44.87550441 -36.01003568 42.53259888 -35.07080078 40.18945312 C-33.41124854 36.05350325 -31.73536737 31.92446965 -30.04931641 27.79925537 C-29.39537935 26.19276565 -28.74638644 24.58425383 -28.10253906 22.97369385 C-27.19779117 20.7136482 -26.27499726 18.4617896 -25.34765625 16.2109375 C-25.08344376 15.53935608 -24.81923126 14.86777466 -24.54701233 14.17584229 C-22.75851366 9.90541923 -20.80684276 7.60083191 -17 5 C-16.28199219 4.42636719 -15.56398438 3.85273438 -14.82421875 3.26171875 C-9.44131402 -0.70411417 -6.51124458 -1.9864814 0 0 Z " fill="#010101" transform="translate(543,419)"/>
<path d="M0 0 C0.845625 0.165 1.69125 0.33 2.5625 0.5 C3.94800197 3.27100394 3.7502467 5.4334706 3.5625 8.5 C2.9025 9.49 2.2425 10.48 1.5625 11.5 C2.5525 13.15 3.5425 14.8 4.5625 16.5 C5.1503125 15.7575 5.1503125 15.7575 5.75 15 C7.5625 13.5 7.5625 13.5 10.125 13.1875 C12.5625 13.5 12.5625 13.5 14.5625 15.5 C15.29369215 20.46366981 15.74809015 25.97945402 13.5703125 30.609375 C12.1875 32.375 12.1875 32.375 10.5390625 34.19140625 C8.85656304 36.15653901 7.52496178 38.03777613 6.1484375 40.21484375 C5.72224121 40.88725098 5.29604492 41.5596582 4.85693359 42.25244141 C4.01034957 43.59975864 3.17176962 44.95214705 2.34228516 46.31005859 C-0.82240123 51.24179009 -0.82240123 51.24179009 -4.359375 52.7265625 C-9.4792035 55.67631141 -11.17580913 60.87187538 -13.6875 66.0625 C-14.83783259 68.35777988 -15.9901878 70.65204715 -17.14453125 72.9453125 C-17.7060791 74.07098633 -18.26762695 75.19666016 -18.84619141 76.35644531 C-20.91646469 80.44617203 -23.11794248 84.44869804 -25.375 88.4375 C-35.32200209 106.16723403 -45.05086934 123.97129646 -53.4375 142.5 C-53.97515991 143.65858521 -53.97515991 143.65858521 -54.52368164 144.84057617 C-56.31868334 148.76073674 -57.90091293 152.4075002 -58.625 156.6875 C-58.85123047 157.93660156 -58.85123047 157.93660156 -59.08203125 159.2109375 C-59.37097876 161.07163244 -59.60068356 162.9414548 -59.8125 164.8125 C-60.60518128 168.22102952 -62.01590855 170.00718527 -64.4375 172.5 C-65.4275 172.83 -66.4175 173.16 -67.4375 173.5 C-68.78790124 175.99678 -68.78790124 175.99678 -69.875 179.125 C-70.26558594 180.14851562 -70.65617188 181.17203125 -71.05859375 182.2265625 C-72.32378695 185.90845945 -73.25755213 189.65439215 -74.21875 193.42578125 C-76.21384164 201.13882846 -78.8568179 208.53799768 -81.70141602 215.97387695 C-82.51035567 218.08958429 -83.30768728 220.2094082 -84.10351562 222.33007812 C-86.31991556 228.19244248 -88.58354428 233.91182435 -91.4375 239.5 C-92.21037864 241.57532227 -92.90827234 243.66022934 -93.59375 245.765625 C-94.4375 247.5 -94.4375 247.5 -97.4375 249.5 C-101.125 249.125 -101.125 249.125 -104.4375 248.5 C-104.7675 249.82 -105.0975 251.14 -105.4375 252.5 C-109.06368467 253.28211826 -111.58316723 253.81304748 -115.11328125 252.51953125 C-117.4375 250.5 -117.4375 250.5 -118.25 246.875 C-118.34245699 245.41825909 -118.40342332 243.95927418 -118.4375 242.5 C-118.469646 241.74340088 -118.50179199 240.98680176 -118.53491211 240.20727539 C-118.68470661 233.94320233 -117.68196828 228.37112324 -115.4375 222.5 C-116.4275 222.17 -117.4175 221.84 -118.4375 221.5 C-118.4375 220.84 -118.4375 220.18 -118.4375 219.5 C-119.8915625 219.5309375 -119.8915625 219.5309375 -121.375 219.5625 C-124.4375 219.5 -124.4375 219.5 -125.4375 218.5 C-125.76438891 212.99263255 -124.88817064 208.22607969 -123.5625 202.9375 C-123.38847656 202.20853516 -123.21445312 201.47957031 -123.03515625 200.72851562 C-122.26845461 197.57368036 -121.46293598 194.56776999 -120.3203125 191.5234375 C-119.15613628 187.53639152 -119.22753883 183.81655687 -119.1875 179.6875 C-118.97629513 171.91379813 -117.53714228 165.44542577 -114.52050781 158.28393555 C-112.1919722 152.64252882 -111.09123031 147.77865961 -113.47436523 141.97485352 C-114.95673627 139.05009078 -116.54719288 136.21415286 -118.1875 133.375 C-118.76790039 132.33545166 -119.34830078 131.29590332 -119.94628906 130.22485352 C-121.76195434 126.9746947 -123.59820196 123.73683261 -125.4375 120.5 C-127.16558983 117.43928705 -128.88728772 114.37550581 -130.59472656 111.30322266 C-131.63251048 109.43603877 -132.68085416 107.57467288 -133.74121094 105.72021484 C-136.42425412 100.90447283 -138.02672539 97.09338088 -138.4375 91.5 C-139.06452197 87.04814403 -140.77846875 83.40127867 -142.8125 79.4375 C-143.15539062 78.75574707 -143.49828125 78.07399414 -143.8515625 77.37158203 C-145.94264493 73.26212647 -148.13855676 69.22507596 -150.4140625 65.21484375 C-150.91502441 64.32740479 -151.41598633 63.43996582 -151.93212891 62.52563477 C-152.91996267 60.78627194 -153.91930292 59.05338349 -154.93115234 57.32788086 C-159.41178984 49.4475656 -159.41178984 49.4475656 -158.4375 44.5 C-155.4375 42.5 -155.4375 42.5 -151.875 42.6875 C-148.4375 43.5 -148.4375 43.5 -146.4375 46.5 C-146.7675 45.365625 -147.0975 44.23125 -147.4375 43.0625 C-149.29784543 35.48728048 -149.11417108 29.42911089 -145.4375 22.5 C-143.4375 20.5 -143.4375 20.5 -140.4921875 20.49609375 C-137.4375 21.5 -137.4375 21.5 -135.7578125 24.22265625 C-135.36335937 25.32480469 -134.96890625 26.42695313 -134.5625 27.5625 C-134.15257812 28.66722656 -133.74265625 29.77195312 -133.3203125 30.91015625 C-132.88332031 32.19212891 -132.88332031 32.19212891 -132.4375 33.5 C-132.53289063 32.36820312 -132.62828125 31.23640625 -132.7265625 30.0703125 C-132.83909885 28.58858388 -132.95104758 27.10681055 -133.0625 25.625 C-133.12695312 24.87863281 -133.19140625 24.13226563 -133.2578125 23.36328125 C-133.39837365 21.4129953 -133.42509849 19.45530533 -133.4375 17.5 C-132.7775 16.84 -132.1175 16.18 -131.4375 15.5 C-127.8125 15.875 -127.8125 15.875 -124.4375 16.5 C-124.26734375 17.10247559 -124.0971875 17.70495117 -123.921875 18.32568359 C-120.0418948 31.91851317 -115.63343111 44.79490328 -109.4375 57.5 C-108.99776855 58.40830566 -108.55803711 59.31661133 -108.10498047 60.25244141 C-102.59095411 71.59303771 -96.82799121 82.79229038 -90.8125 93.875 C-90.30364258 94.8144043 -89.79478516 95.75380859 -89.27050781 96.72167969 C-88.79709961 97.58438477 -88.32369141 98.44708984 -87.8359375 99.3359375 C-87.42005371 100.09438965 -87.00416992 100.8528418 -86.57568359 101.63427734 C-85.44956008 103.64486794 -85.44956008 103.64486794 -83.4375 105.5 C-75.61978123 90.83117516 -75.61978123 90.83117516 -68.375 75.875 C-64.07329615 66.56416193 -59.29120332 57.53270746 -54.4375 48.5 C-53.95732422 47.60023438 -53.47714844 46.70046875 -52.98242188 45.7734375 C-47.84643817 36.15769747 -42.64630798 26.57779533 -37 17.25 C-36.61134766 16.58846924 -36.22269531 15.92693848 -35.82226562 15.24536133 C-33.46293926 11.4409985 -31.70659768 9.81132693 -27.4375 8.5 C-26.21222052 6.54978917 -26.21222052 6.54978917 -25.4375 4.5 C-23.4375 2.5 -23.4375 2.5 -20.9375 2.25 C-18.4375 2.5 -18.4375 2.5 -16.4375 4.5 C-15.91317914 8.71641359 -17.12106396 11.54339521 -18.9375 15.3125 C-19.4015625 16.28832031 -19.865625 17.26414062 -20.34375 18.26953125 C-20.88515625 19.37361328 -20.88515625 19.37361328 -21.4375 20.5 C-20.21390265 19.33989514 -20.21390265 19.33989514 -18.75 17 C-15.98892475 14.01505379 -14.41133672 13.77094341 -10.4375 13.5 C-10.50195312 12.76394531 -10.56640625 12.02789062 -10.6328125 11.26953125 C-10.33535465 7.05157897 -8.17461774 5.12336305 -5.39453125 2.10546875 C-3.4375 0.5 -3.4375 0.5 0 0 Z " fill="#010101" transform="translate(943.4375,408.5)"/>
<path d="M0 0 C0.495 0.53625 0.99 1.0725 1.5 1.625 C2.20125 2.264375 2.9025 2.90375 3.625 3.5625 C5.54347765 5.67282541 6.1033041 6.84812867 6.5 9.625 C5.84 9.625 5.18 9.625 4.5 9.625 C4.34375596 13.92171102 4.4058255 17.69480777 5.4375 21.875 C11.41092134 47.69533902 12.33963009 82.51632318 0.5 106.625 C-0.10774859 107.9396526 -0.71445393 109.25478781 -1.3203125 110.5703125 C-6.31908993 121.1942712 -11.81172647 132.79698768 -22.5 138.625 C-23.25410156 139.08777344 -24.00820312 139.55054688 -24.78515625 140.02734375 C-30.64815405 143.2197151 -35.80656966 144.0877353 -42.375 144.125 C-43.10058105 144.13120361 -43.82616211 144.13740723 -44.57373047 144.14379883 C-49.01574933 144.03823265 -52.14047563 143.60786883 -55.5 140.625 C-56.65993212 138.14628201 -57.4635143 136.03846273 -58.1875 133.4375 C-58.49820435 132.36302612 -58.49820435 132.36302612 -58.81518555 131.2668457 C-67.17559878 100.95744136 -64.511941 65.67351469 -49.0625 38.0625 C-46.6877325 34.19270841 -44.01873723 30.81526903 -41.0625 27.375 C-38.31828859 24.35664238 -38.31828859 24.35664238 -37.41796875 20.578125 C-37.52753906 19.93359375 -37.63710937 19.2890625 -37.75 18.625 C-37.97265625 16.6953125 -37.97265625 16.6953125 -37.5 14.625 C-29.71871303 5.96713824 -18.82479304 -0.79747633 -7.47265625 -3.34375 C-4.33072235 -3.39352321 -2.27044949 -2.08124536 0 0 Z " fill="#FCFCFC" transform="translate(1449.5,457.375)"/>
<path d="M0 0 C4.02661518 2.48435876 7.42284621 5.03308285 8.78515625 9.67578125 C8.85605469 10.44277344 8.92695312 11.20976562 9 12 C8.67 12.33 8.34 12.66 8 13 C8.04083795 14.41990401 8.16368057 15.83732597 8.3125 17.25 C8.41046875 18.25933594 8.5084375 19.26867187 8.609375 20.30859375 C8.89329834 22.99166935 9.19751894 25.66871562 9.515625 28.34765625 C12.55410917 55.16994993 16.0841107 90.53110473 0.640625 114.3203125 C-1.99766233 118.62951513 -4.05585075 123.22751732 -6.19140625 127.80078125 C-11.14820539 136.56885575 -20.58480076 142.84799939 -30 146 C-32.98824733 146.44095619 -35.91920373 146.55860207 -38.9375 146.5625 C-39.65905273 146.56475586 -40.38060547 146.56701172 -41.12402344 146.56933594 C-45.54286685 146.43105359 -48.59533434 145.86868967 -52 143 C-59.71849369 130.71158231 -59.38390602 114.21171506 -59.375 100.1875 C-59.37672211 99.49715668 -59.37844421 98.80681335 -59.38021851 98.09555054 C-59.37659146 85.23613318 -58.70099282 72.2202362 -54.375 60 C-54.11630127 59.25218262 -53.85760254 58.50436523 -53.59106445 57.73388672 C-49.42642168 46.16311885 -43.64399442 36.13550695 -35.6875 26.78125 C-33.58006835 23.30789042 -33.98625026 20.99659164 -34 17 C-27.61266925 8.16813526 -11.33345639 -2.78587755 0 0 Z " fill="#FDFDFD" transform="translate(694,455)"/>
<path d="M0 0 C1.32 0 2.64 0 4 0 C3.37600612 7.60045005 2.5002187 15.13660396 1.4375 22.6875 C1.29892578 23.68716797 1.16035156 24.68683594 1.01757812 25.71679688 C0.68066996 28.14485914 0.34145223 30.57257335 0 33 C-3 34 -3 34 -5.125 34.375 C-5.74375 34.58125 -6.3625 34.7875 -7 35 C-7.33 35.99 -7.66 36.98 -8 38 C-9.65 38 -11.3 38 -13 38 C-13.33 36.35 -13.66 34.7 -14 33 C-15.98 33 -17.96 33 -20 33 C-18.38247674 28.37084504 -15.93372336 24.48192514 -13.3125 20.375 C-12.86914307 19.67366943 -12.42578613 18.97233887 -11.96899414 18.24975586 C-11.07328517 16.83412479 -10.17576395 15.41963863 -9.27636719 14.00634766 C-8.1196736 12.18811737 -6.9686644 10.36647422 -5.8203125 8.54296875 C-1.15013345 1.15013345 -1.15013345 1.15013345 0 0 Z " fill="#F4F4F4" transform="translate(1033,490)"/>
<path d="M0 0 C0.33 0 0.66 0 1 0 C1.33 3.63 1.66 7.26 2 11 C-0.8290723 8.1709277 -1.37611108 7.61855575 -2 4 C-1.34 4 -0.68 4 0 4 C0 2.68 0 1.36 0 0 Z " fill="#B1B1B1" transform="translate(810,432)"/>
</svg>
